# Blender 4.2.15 LTS Release Candidate
# www.blender.org
mtllib blastoise.mtl
o left_hull_collision
v 0.135366 -0.190179 -0.245158
v 0.319894 -0.225921 -0.278922
v -0.078138 -0.220621 -0.278754
v 0.122852 -0.244684 -0.324035
v -0.088468 -0.144168 -0.223583
v 0.103548 -0.087102 -0.215965
v 0.402303 -0.208577 -0.291844
v 0.346555 -0.236193 -0.319890
v 0.338588 -0.193915 -0.242715
v 0.315645 -0.169342 -0.227623
v 0.436134 -0.170762 -0.259644
v 0.287996 -0.238283 -0.348062
v 0.378573 -0.216552 -0.372029
v 0.417374 -0.138150 -0.229190
v 0.321233 -0.225392 -0.382817
v 0.332408 -0.108084 -0.212870
v 0.436236 -0.046451 -0.216315
v 0.500896 -0.009385 -0.244451
v 0.475722 -0.126289 -0.244787
v 0.505601 -0.103644 -0.259579
v 0.487366 -0.156101 -0.294563
v 0.530460 -0.086753 -0.305934
v 0.451178 -0.190044 -0.338892
v 0.492748 -0.152256 -0.362103
v 0.514979 -0.104019 -0.385052
v 0.527666 -0.009308 -0.364941
v 0.052563 -0.091352 -0.444179
v 0.109781 -0.222638 -0.380268
v 0.065836 -0.188529 -0.415285
v 0.129133 -0.159089 -0.431925
v -0.142358 -0.205276 -0.400531
v 0.331179 -0.178037 -0.430721
v 0.332659 -0.107224 -0.447334
v 0.469055 -0.099005 -0.429426
v 0.446440 -0.045765 -0.443143
v 0.451292 -0.155281 -0.410344
v 0.425827 -0.009375 -0.444442
v 0.486596 -0.010418 -0.424063
v -0.327801 -0.117953 -0.446307
v -0.450628 -0.010323 -0.442604
v -0.524854 -0.009375 -0.371713
v -0.528503 -0.009373 -0.300711
v -0.532801 -0.076840 -0.337646
v -0.521227 -0.100570 -0.282257
v -0.487868 -0.159974 -0.318303
v -0.460350 -0.166596 -0.270251
v -0.494362 -0.144366 -0.374665
v -0.446056 -0.193976 -0.333934
v -0.504606 -0.094074 -0.406236
v -0.428099 -0.194899 -0.371041
v -0.454876 -0.140234 -0.419211
v -0.329030 -0.223042 -0.385665
v -0.372427 -0.174534 -0.425550
v -0.327211 -0.236798 -0.349432
v -0.328196 -0.181538 -0.427259
v -0.172023 -0.153426 -0.434191
v -0.328053 -0.236560 -0.307945
v -0.298990 -0.226824 -0.280189
v -0.162851 -0.246447 -0.331129
v -0.483451 -0.093558 -0.236353
v -0.487046 -0.009137 -0.234785
v -0.430614 -0.055848 -0.215848
v -0.334041 -0.117462 -0.214112
v -0.381117 -0.204604 -0.268654
v -0.351847 -0.179256 -0.231901
v -0.121101 -0.195203 -0.249105
v -0.426233 -0.009385 -0.216079
v 0.380463 -0.009384 -0.216252
vn -0.0217 -0.7435 0.6684
vn 0.0047 -0.7558 0.6548
vn -0.0119 -0.9038 0.4277
vn -0.0092 -0.7113 0.7028
vn -0.0236 -0.5162 0.8561
vn 0.0014 -0.1369 0.9906
vn -0.0051 -0.4447 0.8957
vn 0.2538 -0.7860 0.5638
vn 0.2819 -0.7556 0.5912
vn 0.2474 -0.8895 0.3840
vn 0.3845 -0.9166 -0.1092
vn 0.1421 -0.4183 0.8971
vn 0.0937 -0.2573 0.9618
vn -0.0200 -0.5367 0.8435
vn 0.1594 -0.9521 -0.2608
vn 0.1833 -0.9659 -0.1829
vn 0.0317 -0.9644 0.2625
vn 0.0380 -0.9993 -0.0049
vn -0.0073 0.0680 0.9977
vn 0.0011 -0.0001 1.0000
vn -0.0338 -0.2253 0.9737
vn 0.1298 -0.1640 0.9779
vn 0.2699 -0.5697 0.7763
vn 0.4438 -0.0981 0.8907
vn 0.6674 -0.5597 0.4913
vn 0.5435 -0.6579 0.5212
vn 0.3181 -0.5428 0.7773
vn 0.8361 -0.4744 0.2755
vn 0.6762 -0.7366 0.0120
vn 0.4914 -0.7761 0.3951
vn 0.5180 -0.8288 0.2117
vn 0.4134 -0.9077 0.0719
vn 0.2896 -0.1912 0.9379
vn 0.5076 -0.1118 0.8543
vn 0.8515 -0.5229 0.0381
vn 0.8911 -0.4472 -0.0768
vn 0.9807 -0.0950 -0.1711
vn 0.0075 -0.7116 -0.7025
vn 0.0149 -0.9297 -0.3680
vn -0.0165 -0.9322 -0.3616
vn -0.0165 -0.9322 -0.3615
vn 0.1391 -0.1912 -0.9716
vn 0.2342 -0.7153 -0.6585
vn 0.2464 -0.7070 -0.6629
vn -0.0067 0.0803 -0.9967
vn -0.0156 -0.2281 -0.9735
vn -0.0353 -0.4332 -0.9006
vn -0.0177 -0.7092 -0.7048
vn -0.0115 -0.7235 -0.6902
vn 0.1403 -0.2289 -0.9633
vn 0.2237 -0.3756 -0.8994
vn 0.0063 -0.0321 -0.9995
vn -0.0225 -0.2025 -0.9790
vn 0.4547 -0.0362 -0.8899
vn 0.3168 0.1460 -0.9372
vn 0.6064 -0.4203 -0.6750
vn 0.4977 -0.7802 -0.3788
vn 0.4668 -0.7955 -0.3863
vn 0.6505 -0.5493 -0.5245
vn 0.6867 -0.0923 -0.7211
vn 0.8211 0.0112 -0.5706
vn 0.0306 0.9987 -0.0400
vn -0.6840 0.1291 -0.7179
vn -0.8793 -0.4754 -0.0303
vn -0.6545 -0.7447 -0.1308
vn -0.7231 -0.6066 0.3305
vn -0.8924 -0.3559 -0.2774
vn -0.8746 -0.4843 -0.0247
vn -0.9288 -0.0740 -0.3632
vn -0.7041 -0.6313 -0.3250
vn -0.4260 -0.7846 -0.4504
vn -0.6231 -0.5029 -0.5990
vn -0.3002 -0.7516 -0.5874
vn -0.3427 -0.7100 -0.6152
vn -0.5666 -0.7955 0.2148
vn -0.3025 -0.8960 -0.3250
vn -0.3792 -0.1520 -0.9128
vn -0.1772 -0.1688 -0.9696
vn -0.1660 -0.2215 -0.9609
vn -0.0821 -0.2855 -0.9548
vn 0.0091 -0.2870 -0.9579
vn -0.3522 -0.9242 -0.1475
vn -0.3392 -0.9407 -0.0015
vn -0.1379 -0.6997 -0.7010
vn 0.0111 -0.7079 -0.7062
vn -0.0154 -0.9350 -0.3542
vn -0.0591 -0.9982 0.0045
vn 0.0084 -0.7179 -0.6961
vn 0.0219 -0.2356 -0.9716
vn 0.0221 -0.3536 -0.9351
vn 0.0059 -0.9123 -0.4094
vn -0.0026 -0.4878 -0.8729
vn 0.0094 -0.6982 -0.7158
vn -0.3417 -0.0320 0.9393
vn -0.1827 -0.2597 0.9483
vn -0.1785 -0.2243 0.9580
vn -0.3414 -0.4824 0.8067
vn -0.6397 -0.4807 0.5998
vn -0.4201 -0.8641 0.2772
vn 0.0021 0.0314 0.9995
vn 0.0068 -0.2784 0.9604
vn 0.0229 -0.9109 0.4121
vn -0.0087 -0.9407 0.3391
vn 0.0167 -0.7470 0.6646
vn -0.3213 -0.6405 0.6976
vn -0.1665 -0.8630 0.4770
vn -0.1203 -0.7699 0.6267
vn -0.3743 -0.8994 0.2259
vn 0.0034 -0.7106 0.7036
vn 0.0339 -0.4643 0.8850
vn -0.0057 -0.8932 0.4496
vn 0.0005 0.0049 1.0000
vn 0.0173 -0.1892 0.9818
vn -0.0000 1.0000 -0.0000
vn 0.0064 1.0000 -0.0076
vn 0.0001 1.0000 -0.0000
vn -0.0011 0.9999 -0.0145
vn -0.0021 0.0320 -0.9995
vn -0.9945 0.0913 -0.0511
vn -0.0010 1.0000 0.0004
vn -0.0000 1.0000 0.0001
vn 0.0002 0.0029 1.0000
vn 0.0085 -0.0420 -0.9991
vn -0.2937 0.0325 0.9553
vn 0.2158 0.3231 0.9214
vn 0.8854 -0.0302 0.4638
vn 0.9571 0.1966 0.2128
vn -0.9814 -0.0403 0.1878
vn -0.8459 0.0401 0.5318
vn -0.7680 -0.0446 0.6388
vn 0.0041 -0.1735 -0.9848
s 0
f 1//1 2//1 9//1
f 3//2 1//2 66//2
f 2//3 3//3 4//3
f 3//4 2//4 1//4
f 10//5 5//5 1//5
f 5//6 10//6 6//6
f 5//7 66//7 1//7
f 9//8 2//8 7//8
f 7//9 11//9 9//9
f 8//10 7//10 2//10
f 8//11 13//11 23//11
f 10//12 9//12 14//12
f 10//13 14//13 16//13
f 10//14 1//14 9//14
f 13//15 8//15 12//15
f 13//16 12//16 15//16
f 4//17 8//17 2//17
f 12//18 8//18 4//18
f 17//19 6//19 16//19
f 6//20 17//20 68//20
f 6//21 10//21 16//21
f 17//22 16//22 14//22
f 11//23 14//23 9//23
f 18//24 17//24 19//24
f 20//25 19//25 21//25
f 19//26 11//26 21//26
f 14//27 11//27 19//27
f 20//28 21//28 22//28
f 24//29 21//29 23//29
f 11//30 7//30 21//30
f 7//31 23//31 21//31
f 23//32 7//32 8//32
f 19//33 17//33 14//33
f 20//34 18//34 19//34
f 22//35 21//35 24//35
f 24//36 25//36 22//36
f 22//37 25//37 26//37
f 29//38 28//38 31//38
f 4//39 59//39 28//39
f 4//40 28//40 12//40
f 15//41 12//41 28//41
f 34//42 33//42 35//42
f 13//43 15//43 32//43
f 13//44 32//44 36//44
f 33//45 27//45 35//45
f 32//46 30//46 33//46
f 30//47 32//47 29//47
f 15//48 28//48 32//48
f 32//49 28//49 29//49
f 32//50 33//50 34//50
f 32//51 34//51 36//51
f 37//52 35//52 27//52
f 30//53 27//53 33//53
f 35//54 38//54 34//54
f 37//55 38//55 35//55
f 25//56 36//56 34//56
f 36//57 24//57 23//57
f 36//58 23//58 13//58
f 24//59 36//59 25//59
f 25//60 34//60 38//60
f 25//61 38//61 26//61
f 26//62 38//62 37//62
f 49//63 41//63 40//63
f 47//64 45//64 44//64
f 47//65 48//65 45//65
f 44//66 45//66 46//66
f 43//67 49//67 47//67
f 43//68 47//68 44//68
f 43//69 41//69 49//69
f 51//70 50//70 48//70
f 51//71 48//71 47//71
f 51//72 47//72 49//72
f 52//73 50//73 53//73
f 50//74 51//74 53//74
f 48//75 46//75 45//75
f 52//76 54//76 50//76
f 49//77 40//77 51//77
f 40//78 39//78 51//78
f 53//79 51//79 39//79
f 55//80 53//80 39//80
f 39//81 56//81 55//81
f 48//82 50//82 54//82
f 48//83 54//83 57//83
f 55//84 52//84 53//84
f 31//85 52//85 55//85
f 54//86 52//86 59//86
f 57//87 54//87 59//87
f 31//88 55//88 29//88
f 27//89 56//89 39//89
f 56//90 29//90 55//90
f 59//91 52//91 28//91
f 30//92 29//92 56//92
f 52//93 31//93 28//93
f 62//94 61//94 60//94
f 63//95 62//95 60//95
f 60//96 65//96 63//96
f 60//97 46//97 65//97
f 46//98 60//98 44//98
f 48//99 64//99 46//99
f 62//100 63//100 6//100
f 63//101 65//101 5//101
f 59//102 3//102 58//102
f 59//103 58//103 57//103
f 66//104 58//104 3//104
f 46//105 64//105 65//105
f 58//106 64//106 57//106
f 65//107 64//107 58//107
f 64//108 48//108 57//108
f 66//109 65//109 58//109
f 65//110 66//110 5//110
f 3//111 59//111 4//111
f 6//112 67//112 62//112
f 6//113 63//113 5//113
f 37//114 67//114 68//114
f 67//115 42//115 61//115
f 67//116 41//116 42//116
f 41//117 37//117 40//117
f 40//118 37//118 39//118
f 41//119 43//119 42//119
f 37//114 68//114 18//114
f 37//120 18//120 26//120
f 37//121 41//121 67//121
f 6//122 68//122 67//122
f 39//123 37//123 27//123
f 61//124 62//124 67//124
f 17//125 18//125 68//125
f 18//126 20//126 22//126
f 18//127 22//127 26//127
f 42//128 43//128 44//128
f 44//129 61//129 42//129
f 61//130 44//130 60//130
f 30//131 56//131 27//131
o right_hull_collision
v 0.135366 -0.190179 0.415242
v 0.319894 -0.225921 0.381478
v -0.078138 -0.220621 0.381646
v 0.122852 -0.244684 0.336364
v -0.088468 -0.144168 0.436817
v 0.103548 -0.087102 0.444435
v 0.402303 -0.208577 0.368556
v 0.346555 -0.236193 0.340510
v 0.338588 -0.193915 0.417684
v 0.315645 -0.169342 0.432777
v 0.436134 -0.170762 0.400756
v 0.287996 -0.238283 0.312337
v 0.378573 -0.216552 0.288371
v 0.417374 -0.138150 0.431210
v 0.321233 -0.225392 0.277583
v 0.332408 -0.108084 0.447530
v 0.436236 -0.046451 0.444085
v 0.500896 -0.009385 0.415948
v 0.475722 -0.126289 0.415613
v 0.505601 -0.103644 0.400821
v 0.487366 -0.156101 0.365837
v 0.530460 -0.086753 0.354466
v 0.451178 -0.190044 0.321508
v 0.492748 -0.152256 0.298297
v 0.514979 -0.104019 0.275348
v 0.527666 -0.009308 0.295459
v 0.052563 -0.091352 0.216220
v 0.109781 -0.222638 0.280132
v 0.065836 -0.188529 0.245115
v 0.129133 -0.159089 0.228474
v -0.142358 -0.205276 0.259869
v 0.331179 -0.178037 0.229678
v 0.332659 -0.107224 0.213066
v 0.469055 -0.099005 0.230974
v 0.446440 -0.045766 0.217257
v 0.451292 -0.155281 0.250056
v 0.425827 -0.009375 0.215958
v 0.486596 -0.010418 0.236337
v -0.327801 -0.117953 0.214093
v -0.450628 -0.010323 0.217796
v -0.524854 -0.009375 0.288687
v -0.528503 -0.009373 0.359689
v -0.532801 -0.076840 0.322754
v -0.521227 -0.100570 0.378143
v -0.487868 -0.159974 0.342097
v -0.460350 -0.166596 0.390149
v -0.494362 -0.144366 0.285735
v -0.446056 -0.193976 0.326466
v -0.504606 -0.094074 0.254163
v -0.428099 -0.194899 0.289359
v -0.454876 -0.140234 0.241189
v -0.329030 -0.223042 0.274734
v -0.372427 -0.174534 0.234850
v -0.327211 -0.236798 0.310968
v -0.328196 -0.181538 0.233141
v -0.172023 -0.153426 0.226209
v -0.328053 -0.236560 0.352455
v -0.298990 -0.226824 0.380211
v -0.162851 -0.246447 0.329271
v -0.483451 -0.093558 0.424047
v -0.487046 -0.009137 0.425615
v -0.430614 -0.055848 0.444552
v -0.334041 -0.117462 0.446287
v -0.381117 -0.204604 0.391746
v -0.351847 -0.179256 0.428499
v -0.121101 -0.195203 0.411295
v -0.426233 -0.009385 0.444321
v 0.380463 -0.009384 0.444148
vn -0.0217 -0.7435 0.6684
vn 0.0047 -0.7558 0.6548
vn -0.0119 -0.9038 0.4277
vn -0.0092 -0.7113 0.7028
vn -0.0236 -0.5162 0.8561
vn 0.0014 -0.1369 0.9906
vn -0.0051 -0.4447 0.8957
vn 0.2538 -0.7860 0.5638
vn 0.2819 -0.7556 0.5912
vn 0.2474 -0.8895 0.3840
vn 0.3845 -0.9166 -0.1092
vn 0.1421 -0.4183 0.8971
vn 0.0937 -0.2573 0.9618
vn -0.0200 -0.5367 0.8435
vn 0.1594 -0.9521 -0.2608
vn 0.1833 -0.9659 -0.1829
vn 0.0317 -0.9644 0.2625
vn 0.0380 -0.9993 -0.0049
vn -0.0073 0.0680 0.9977
vn 0.0011 -0.0001 1.0000
vn -0.0338 -0.2253 0.9737
vn 0.1298 -0.1640 0.9779
vn 0.2699 -0.5697 0.7763
vn 0.4438 -0.0981 0.8907
vn 0.6674 -0.5597 0.4913
vn 0.5435 -0.6579 0.5212
vn 0.3181 -0.5428 0.7773
vn 0.8361 -0.4744 0.2755
vn 0.6762 -0.7366 0.0120
vn 0.4914 -0.7761 0.3951
vn 0.5180 -0.8288 0.2117
vn 0.4134 -0.9077 0.0719
vn 0.2896 -0.1912 0.9379
vn 0.5076 -0.1118 0.8543
vn 0.8515 -0.5229 0.0381
vn 0.8911 -0.4472 -0.0768
vn 0.9807 -0.0950 -0.1711
vn 0.0075 -0.7116 -0.7025
vn 0.0149 -0.9297 -0.3680
vn -0.0165 -0.9322 -0.3616
vn -0.0165 -0.9322 -0.3615
vn 0.1391 -0.1912 -0.9716
vn 0.2342 -0.7153 -0.6585
vn 0.2464 -0.7070 -0.6629
vn -0.0067 0.0803 -0.9967
vn -0.0156 -0.2281 -0.9735
vn -0.0353 -0.4332 -0.9006
vn -0.0177 -0.7092 -0.7048
vn -0.0115 -0.7235 -0.6902
vn 0.1403 -0.2289 -0.9633
vn 0.2237 -0.3756 -0.8994
vn 0.0063 -0.0321 -0.9995
vn -0.0225 -0.2025 -0.9790
vn 0.4547 -0.0362 -0.8899
vn 0.3168 0.1460 -0.9372
vn 0.6064 -0.4203 -0.6750
vn 0.4977 -0.7802 -0.3788
vn 0.4668 -0.7955 -0.3863
vn 0.6505 -0.5493 -0.5245
vn 0.6867 -0.0923 -0.7211
vn 0.8211 0.0112 -0.5706
vn 0.0306 0.9987 -0.0400
vn -0.6840 0.1291 -0.7179
vn -0.8793 -0.4754 -0.0303
vn -0.6545 -0.7447 -0.1308
vn -0.7231 -0.6066 0.3305
vn -0.8924 -0.3559 -0.2774
vn -0.8746 -0.4843 -0.0247
vn -0.9288 -0.0740 -0.3632
vn -0.7041 -0.6313 -0.3250
vn -0.4260 -0.7846 -0.4504
vn -0.6231 -0.5029 -0.5990
vn -0.3002 -0.7516 -0.5874
vn -0.3427 -0.7100 -0.6152
vn -0.5666 -0.7955 0.2148
vn -0.3025 -0.8960 -0.3250
vn -0.3792 -0.1520 -0.9128
vn -0.1772 -0.1688 -0.9696
vn -0.1660 -0.2215 -0.9609
vn -0.0821 -0.2855 -0.9548
vn 0.0091 -0.2870 -0.9579
vn -0.3522 -0.9242 -0.1475
vn -0.3392 -0.9407 -0.0015
vn -0.1379 -0.6997 -0.7010
vn 0.0111 -0.7079 -0.7062
vn -0.0154 -0.9350 -0.3542
vn -0.0591 -0.9982 0.0045
vn 0.0084 -0.7179 -0.6961
vn 0.0219 -0.2356 -0.9716
vn 0.0221 -0.3536 -0.9351
vn 0.0059 -0.9123 -0.4094
vn -0.0026 -0.4878 -0.8729
vn 0.0094 -0.6982 -0.7158
vn -0.3417 -0.0320 0.9393
vn -0.1827 -0.2597 0.9483
vn -0.1785 -0.2243 0.9580
vn -0.3414 -0.4824 0.8067
vn -0.6397 -0.4807 0.5998
vn -0.4201 -0.8641 0.2772
vn 0.0021 0.0314 0.9995
vn 0.0068 -0.2784 0.9604
vn 0.0229 -0.9109 0.4121
vn -0.0087 -0.9407 0.3391
vn 0.0167 -0.7470 0.6646
vn -0.3213 -0.6405 0.6976
vn -0.1665 -0.8630 0.4770
vn -0.1203 -0.7699 0.6267
vn -0.3743 -0.8994 0.2259
vn 0.0034 -0.7106 0.7036
vn 0.0339 -0.4643 0.8850
vn -0.0057 -0.8932 0.4496
vn 0.0005 0.0049 1.0000
vn 0.0173 -0.1892 0.9818
vn -0.0000 1.0000 -0.0000
vn 0.0064 1.0000 -0.0076
vn 0.0001 1.0000 -0.0000
vn -0.0011 0.9999 -0.0145
vn -0.0021 0.0320 -0.9995
vn -0.9945 0.0913 -0.0511
vn -0.0010 1.0000 0.0004
vn -0.0000 1.0000 0.0001
vn 0.0002 0.0029 1.0000
vn 0.0085 -0.0420 -0.9991
vn -0.2937 0.0325 0.9553
vn 0.2158 0.3231 0.9214
vn 0.8854 -0.0302 0.4638
vn 0.9571 0.1966 0.2128
vn -0.9814 -0.0403 0.1878
vn -0.8459 0.0401 0.5318
vn -0.7680 -0.0446 0.6388
vn 0.0041 -0.1735 -0.9848
s 0
f 69//132 70//132 77//132
f 71//133 69//133 134//133
f 70//134 71//134 72//134
f 71//135 70//135 69//135
f 78//136 73//136 69//136
f 73//137 78//137 74//137
f 73//138 134//138 69//138
f 77//139 70//139 75//139
f 75//140 79//140 77//140
f 76//141 75//141 70//141
f 76//142 81//142 91//142
f 78//143 77//143 82//143
f 78//144 82//144 84//144
f 78//145 69//145 77//145
f 81//146 76//146 80//146
f 81//147 80//147 83//147
f 72//148 76//148 70//148
f 80//149 76//149 72//149
f 85//150 74//150 84//150
f 74//151 85//151 136//151
f 74//152 78//152 84//152
f 85//153 84//153 82//153
f 79//154 82//154 77//154
f 86//155 85//155 87//155
f 88//156 87//156 89//156
f 87//157 79//157 89//157
f 82//158 79//158 87//158
f 88//159 89//159 90//159
f 92//160 89//160 91//160
f 79//161 75//161 89//161
f 75//162 91//162 89//162
f 91//163 75//163 76//163
f 87//164 85//164 82//164
f 88//165 86//165 87//165
f 90//166 89//166 92//166
f 92//167 93//167 90//167
f 90//168 93//168 94//168
f 97//169 96//169 99//169
f 72//170 127//170 96//170
f 72//171 96//171 80//171
f 83//172 80//172 96//172
f 102//173 101//173 103//173
f 81//174 83//174 100//174
f 81//175 100//175 104//175
f 101//176 95//176 103//176
f 100//177 98//177 101//177
f 98//178 100//178 97//178
f 83//179 96//179 100//179
f 100//180 96//180 97//180
f 100//181 101//181 102//181
f 100//182 102//182 104//182
f 105//183 103//183 95//183
f 98//184 95//184 101//184
f 103//185 106//185 102//185
f 105//186 106//186 103//186
f 93//187 104//187 102//187
f 104//188 92//188 91//188
f 104//189 91//189 81//189
f 92//190 104//190 93//190
f 93//191 102//191 106//191
f 93//192 106//192 94//192
f 94//193 106//193 105//193
f 117//194 109//194 108//194
f 115//195 113//195 112//195
f 115//196 116//196 113//196
f 112//197 113//197 114//197
f 111//198 117//198 115//198
f 111//199 115//199 112//199
f 111//200 109//200 117//200
f 119//201 118//201 116//201
f 119//202 116//202 115//202
f 119//203 115//203 117//203
f 120//204 118//204 121//204
f 118//205 119//205 121//205
f 116//206 114//206 113//206
f 120//207 122//207 118//207
f 117//208 108//208 119//208
f 108//209 107//209 119//209
f 121//210 119//210 107//210
f 123//211 121//211 107//211
f 107//212 124//212 123//212
f 116//213 118//213 122//213
f 116//214 122//214 125//214
f 123//215 120//215 121//215
f 99//216 120//216 123//216
f 122//217 120//217 127//217
f 125//218 122//218 127//218
f 99//219 123//219 97//219
f 95//220 124//220 107//220
f 124//221 97//221 123//221
f 127//222 120//222 96//222
f 98//223 97//223 124//223
f 120//224 99//224 96//224
f 130//225 129//225 128//225
f 131//226 130//226 128//226
f 128//227 133//227 131//227
f 128//228 114//228 133//228
f 114//229 128//229 112//229
f 116//230 132//230 114//230
f 130//231 131//231 74//231
f 131//232 133//232 73//232
f 127//233 71//233 126//233
f 127//234 126//234 125//234
f 134//235 126//235 71//235
f 114//236 132//236 133//236
f 126//237 132//237 125//237
f 133//238 132//238 126//238
f 132//239 116//239 125//239
f 134//240 133//240 126//240
f 133//241 134//241 73//241
f 71//242 127//242 72//242
f 74//243 135//243 130//243
f 74//244 131//244 73//244
f 105//245 135//245 136//245
f 135//246 110//246 129//246
f 135//247 109//247 110//247
f 109//248 105//248 108//248
f 108//249 105//249 107//249
f 109//250 111//250 110//250
f 105//245 136//245 86//245
f 105//251 86//251 94//251
f 105//252 109//252 135//252
f 74//253 136//253 135//253
f 107//254 105//254 95//254
f 129//255 130//255 135//255
f 85//256 86//256 136//256
f 86//257 88//257 90//257
f 86//258 90//258 94//258
f 110//259 111//259 112//259
f 112//260 129//260 110//260
f 129//261 112//261 128//261
f 98//262 124//262 95//262
o cross_bar_collision
v -0.317230 -0.031260 -0.219130
v -0.317230 -0.006911 -0.219130
v 0.317230 -0.031260 -0.219130
v 0.317230 -0.006911 -0.219130
v -0.317230 -0.031260 0.219130
v -0.317230 -0.006911 0.219130
v 0.317230 -0.031260 0.219130
v 0.317230 -0.006911 0.219130
vn -0.0000 -0.0000 -1.0000
vn 1.0000 -0.0000 -0.0000
vn -0.0000 -0.0000 1.0000
vn -1.0000 -0.0000 -0.0000
vn -0.0000 -1.0000 -0.0000
vn -0.0000 1.0000 -0.0000
vt 0.375000 0.000000
vt 0.625000 0.000000
vt 0.625000 0.250000
vt 0.375000 0.250000
vt 0.625000 0.500000
vt 0.375000 0.500000
vt 0.625000 0.750000
vt 0.375000 0.750000
vt 0.625000 1.000000
vt 0.375000 1.000000
vt 0.125000 0.500000
vt 0.125000 0.750000
vt 0.875000 0.500000
vt 0.875000 0.750000
s 0
f 137/1/263 138/2/263 140/3/263 139/4/263
f 139/4/264 140/3/264 144/5/264 143/6/264
f 143/6/265 144/5/265 142/7/265 141/8/265
f 141/8/266 142/7/266 138/9/266 137/10/266
f 139/11/267 143/6/267 141/8/267 137/12/267
f 144/5/268 140/13/268 138/14/268 142/7/268
